<!-- icon666.com - MILLIONS vector ICONS FREE --><svg id="Layer_1" fill="#fff" viewBox="0 0 512 512" xmlns="http://www.w3.org/2000/svg" data-name="Layer 1"><path d="m426.67 170.67h-277.34v-42.67a64 64 0 0 1 64-64h85.34a64 64 0 0 1 55.45 32 21.33 21.33 0 1 0 36.93-21.37 106.66 106.66 0 0 0 -92.38-53.32h-85.34a106.59 106.59 0 0 0 -106.66 106.69v42.67h-21.34a21.33 21.33 0 0 0 -21.33 21.33v192a106.59 106.59 0 0 0 106.67 106.67h170.66a106.59 106.59 0 0 0 106.67-106.67v-192a21.33 21.33 0 0 0 -21.33-21.33zm-21.34 213.33a64 64 0 0 1 -64 64h-170.66a64 64 0 0 1 -64-64v-170.67h298.66z"/><path d="m227.9 329.44a42.32 42.32 0 0 0 7.69 5.58v49a21.34 21.34 0 0 0 42.67 0v-50.11a42.14 42.14 0 0 0 8.52-7.14 41.68 41.68 0 1 0 -58.88 2.67zm28.1-31.76h.17-.33a.7.7 0 0 1 .14 0z"/></svg>